<?xml version="1.0" encoding="utf-8"?>
<!-- Generator: Adobe Illustrator 14.0.0, SVG Export Plug-In . SVG Version: 6.00 Build 43363)  -->
<!DOCTYPE svg PUBLIC "-//W3C//DTD SVG 1.1//EN" "http://www.w3.org/Graphics/SVG/1.1/DTD/svg11.dtd">
<svg version="1.1" id="Layer_1" xmlns="http://www.w3.org/2000/svg" xmlns:xlink="http://www.w3.org/1999/xlink" x="0px" y="0px"
	 width="64px" height="64px" viewBox="0 0 64 64" enable-background="new 0 0 64 64" xml:space="preserve">
<g>
	<g>
		<path fill-rule="evenodd" clip-rule="evenodd" fill="#FFFFFF" d="M64,0c0,21.333,0,42.667,0,64c-21.333,0-42.667,0-64,0
			C0,42.667,0,21.333,0,0C21.333,0,42.667,0,64,0z M44,4c-6.374,3.357-1.917,14.006-8,19c-7.146-0.479-9.342,3.991-16,4
			c-4.406-2.26-5.769-7.565-11-9c-2.843,4.157-3.761,10.239-4,17c0.779,0.221,1.163,0.838,1,2c9.318,4.682,21.088,6.912,23,19
			c0.299,1.966-1.35,1.983-2,3c1.34,1.765,5.788-1.637,8,1c0.386-3.72-4.816-1.851-5-5c4.643,0.977,1.357-5.977,6-5
			c-0.084,3.982,6.979,6.12,2,9c1.34,1.765,5.788-1.637,8,1c0.386-3.72-4.816-1.851-5-5c1.326-1.674,2.649-3.351,2-7
			c9.055-3.217,11.022-16.794,10-27c2.355,0.022,2.944-1.723,6-1c-2.922-5.021-7.281-7.069-6-14C48.793,5.068,48.207,5.696,44,4z"/>
		<path fill-rule="evenodd" clip-rule="evenodd" d="M53,6c-1.281,6.931,3.078,8.979,6,14c-3.056-0.723-3.645,1.022-6,1
			c1.022,10.206-0.945,23.783-10,27c0.649,3.649-0.674,5.326-2,7c0.184,3.149,5.386,1.28,5,5c-2.212-2.637-6.66,0.765-8-1
			c4.979-2.88-2.084-5.018-2-9c-4.643-0.977-1.357,5.977-6,5c0.184,3.149,5.386,1.28,5,5c-2.212-2.637-6.66,0.765-8-1
			c0.65-1.017,2.299-1.034,2-3C27.088,43.912,15.318,41.682,6,37c0.163-1.162-0.221-1.779-1-2c0.239-6.761,1.157-12.843,4-17
			c5.231,1.435,6.594,6.74,11,9c6.658-0.009,8.854-4.479,16-4c6.083-4.994,1.626-15.643,8-19C48.207,5.696,48.793,5.068,53,6z M42,7
			c0,1,0,2,0,3c4.07-1.095,6.785-0.909,10,1c0-1.333,0-2.667,0-4C47.762,7.889,44.919,4.375,42,7z M37,25
			c-4.104-0.105-8.164-0.164-10,2c20.869-5.189,24.236,16.701,9,18C18.607,46.482,20.29,24.147,9,20c-3.95,5.652,6.679,6.817,4,11
			c-2.711-0.622-2.489-4.178-6-4c-0.259,4.589-1.063,4.832,0,9c2.935,2.399,6.78,3.886,12,4c5.656,2.677,7.278,9.389,12,13
			c2.275-0.725,0.298-5.702,4-5c4.81-1.477,0.921,5.746,5,5c2.802-8.004,10.833-12.387,12-22c0.696-5.735-1.283-12.344-1-19
			C40.038,6.538,41.402,20.707,37,25z M53,19c1.496-0.17,3.69,0.357,4-1c-1.427-0.239-1.687-1.646-3-2
			C54.043,17.376,53.529,18.196,53,19z M43,41c1.296-2.903,1.296-7.097,0-10c-4.579-3.102-18.027-2.622-24-1
			C20.923,39.094,32.223,47.153,43,41z"/>
		<path fill-rule="evenodd" clip-rule="evenodd" fill="#FFFFFF" d="M52,7c0,1.333,0,2.667,0,4c-3.215-1.909-5.93-2.095-10-1
			c0-1,0-2,0-3C44.919,4.375,47.762,7.889,52,7z"/>
		<path fill-rule="evenodd" clip-rule="evenodd" fill="#FFFFFF" d="M51,12c-0.283,6.656,1.696,13.265,1,19
			c-1.167,9.613-9.198,13.996-12,22c-4.079,0.746-0.19-6.477-5-5c-3.702-0.702-1.725,4.275-4,5c-4.722-3.611-6.344-10.323-12-13
			c-5.22-0.114-9.065-1.601-12-4c-1.063-4.168-0.259-4.411,0-9c3.511-0.178,3.289,3.378,6,4c2.679-4.183-7.95-5.348-4-11
			c11.29,4.147,9.607,26.482,27,25c15.236-1.299,11.869-23.189-9-18c1.836-2.164,5.896-2.105,10-2C41.402,20.707,40.038,6.538,51,12
			z"/>
		<path fill-rule="evenodd" clip-rule="evenodd" fill="#FFFFFF" d="M54,16c1.313,0.354,1.573,1.761,3,2c-0.31,1.357-2.504,0.83-4,1
			C53.529,18.196,54.043,17.376,54,16z"/>
		<path fill-rule="evenodd" clip-rule="evenodd" fill="#FFFFFF" d="M19,30c5.973-1.622,19.421-2.102,24,1
			c1.296,2.903,1.296,7.097,0,10C32.223,47.153,20.923,39.094,19,30z M24,35c0.667,0,1.333,0,2,0c0-0.667,0-1.333,0-2
			c-0.667,0-1.333,0-2,0C24,33.667,24,34.333,24,35z M29,35c0.667,0,1.333,0,2,0c0-0.667,0-1.333,0-2c-0.667,0-1.333,0-2,0
			C29,33.667,29,34.333,29,35z M34,35c0.667,0,1.333,0,2,0c0-0.667,0-1.333,0-2c-0.667,0-1.333,0-2,0C34,33.667,34,34.333,34,35z
			 M39,35c0.667,0,1.333,0,2,0c0-0.667,0-1.333,0-2c-0.667,0-1.333,0-2,0C39,33.667,39,34.333,39,35z"/>
		<path fill-rule="evenodd" clip-rule="evenodd" d="M24,33c0.667,0,1.333,0,2,0c0,0.667,0,1.333,0,2c-0.667,0-1.333,0-2,0
			C24,34.333,24,33.667,24,33z"/>
		<path fill-rule="evenodd" clip-rule="evenodd" d="M29,33c0.667,0,1.333,0,2,0c0,0.667,0,1.333,0,2c-0.667,0-1.333,0-2,0
			C29,34.333,29,33.667,29,33z"/>
		<path fill-rule="evenodd" clip-rule="evenodd" d="M34,33c0.667,0,1.333,0,2,0c0,0.667,0,1.333,0,2c-0.667,0-1.333,0-2,0
			C34,34.333,34,33.667,34,33z"/>
		<path fill-rule="evenodd" clip-rule="evenodd" d="M39,33c0.667,0,1.333,0,2,0c0,0.667,0,1.333,0,2c-0.667,0-1.333,0-2,0
			C39,34.333,39,33.667,39,33z"/>
	</g>
</g>
</svg>
