<?xml version="1.0" encoding="utf-8"?>
<!-- Generator: Adobe Illustrator 14.0.0, SVG Export Plug-In . SVG Version: 6.00 Build 43363)  -->
<!DOCTYPE svg PUBLIC "-//W3C//DTD SVG 1.1//EN" "http://www.w3.org/Graphics/SVG/1.1/DTD/svg11.dtd">
<svg version="1.1" id="Layer_1" xmlns="http://www.w3.org/2000/svg" xmlns:xlink="http://www.w3.org/1999/xlink" x="0px" y="0px"
	 width="612px" height="792px" viewBox="0 0 612 792" enable-background="new 0 0 612 792" xml:space="preserve">
<image display="none" overflow="visible" width="556" height="554" xlink:href="../../assets1/img/shipe2.PNG"  transform="matrix(0.7501 0 0 0.7501 97 188)">
</image>
<g>
	<path fill="none" stroke="#5A5A5A" stroke-width="20" stroke-linecap="round" stroke-linejoin="round" d="M14.523,542.723
		c0,0,53.411,25.791,93.52-13.553c15.586-15.287,55.528,49.338,132-3.471c23.47-16.207,53.579,54.545,124.693-0.352
		c28.66-22.121,54.551,63.236,142.714,0c0,0,48.352,35.789,90.239,14.248"/>
	<path fill="none" stroke="#5A5A5A" stroke-width="20" stroke-linecap="round" stroke-linejoin="round" d="M14.523,605.861
		c0,0,53.411,25.791,93.52-13.553c15.586-15.287,55.528,49.338,132-3.471c23.47-16.207,53.579,54.545,124.693-0.352
		c28.66-22.121,54.551,63.236,142.714,0c0,0,48.352,35.789,90.239,14.248"/>
	<path fill="none" stroke="#5A5A5A" stroke-width="19" stroke-linejoin="round" d="M391.5,521.25
		c-57.25,27.5-204.524,32.793-210.5-51.5h247.5C428.5,469.75,432.251,501.675,391.5,521.25z"/>
	<path fill="none" stroke="#5A5A5A" stroke-width="18" stroke-linejoin="round" d="M257,315c0,0,112.25,9,120,123.5
		c0.716,10.582-110.75,7.25-128.5,5.5C243.043,443.462,285.75,396.5,257,315z"/>
	<path fill="none" stroke="#5A5A5A" stroke-width="18" stroke-linecap="round" d="M250.55,287.407c0,0,10-15.25,26.75-10.5
		s25.254,21.724,48.5,4.792"/>
</g>
</svg>
