<?xml version="1.0" encoding="utf-8"?>
<!-- Generator: Adobe Illustrator 14.0.0, SVG Export Plug-In . SVG Version: 6.00 Build 43363)  -->
<!DOCTYPE svg PUBLIC "-//W3C//DTD SVG 1.1//EN" "http://www.w3.org/Graphics/SVG/1.1/DTD/svg11.dtd">
<svg version="1.1" id="Layer_1" xmlns="http://www.w3.org/2000/svg" xmlns:xlink="http://www.w3.org/1999/xlink" x="0px" y="0px"
	 width="612px" height="792px" viewBox="0 0 612 792" enable-background="new 0 0 612 792" xml:space="preserve">
<image display="none" overflow="visible" enable-background="new    " width="463" height="378" xlink:href="shipe.PNG"  transform="matrix(1.3218 0 0 1.4284 -4.882813e-004 125.499)">
</image>
<path fill="#5A5A5A" stroke="#050000" stroke-width="0.5" stroke-linejoin="round" d="M150.5,375.5l250-69l-81-56l-113,15l-40-47
	c0,0-21-4-23,15s34,55,34,55L150.5,375.5z"/>
<path fill="#5A5A5A" stroke="#050000" stroke-linejoin="round" d="M78.5,501.5c0,0-0.152-0.943-0.327-2.648
	c-1.242-12.113-3.629-62.682,39.327-86.352c49-27,422-107,422-107s-14.577,174.19-73,209c-23.451,13.973-56,0-56,0s-22-22-71-3
	s-63,2-63,2s-47-17-77-3s-56.081,6-56.081,6s-41.919-23-59.919-18"/>
<ellipse fill="#FCFCFC" stroke="#050000" cx="184" cy="453" rx="17.5" ry="16.5"/>
<ellipse fill="#FCFCFC" stroke="#050000" cx="254.46" cy="433.5" rx="17.5" ry="16.5"/>
<ellipse fill="#FCFCFC" stroke="#050000" cx="326.08" cy="412.5" rx="17.5" ry="16.5"/>
<ellipse fill="#FCFCFC" stroke="#050000" cx="391.031" cy="395.463" rx="17.5" ry="16.5"/>
<path fill="#5A5A5A" stroke="#050000" stroke-linejoin="round" d="M97.5,543.5l53,49c0,0,65.836-4.431,86.46-17
	c17.5-10.666,27.699,31.32,89.12,17.16c61.42-14.16,53.42-23.326,53.42-23.326l82,20.166l53-51c0,0-35,24-82,13s-47-11-47-11
	s-19,20-71,16s-77.54-22-77.54-22s-86.46,49-139.46,4"/>
</svg>
