<?xml version="1.0" encoding="utf-8"?>
<!-- Generator: Adobe Illustrator 14.0.0, SVG Export Plug-In . SVG Version: 6.00 Build 43363)  -->
<!DOCTYPE svg PUBLIC "-//W3C//DTD SVG 1.1//EN" "http://www.w3.org/Graphics/SVG/1.1/DTD/svg11.dtd">
<svg version="1.1" id="Layer_1" xmlns="http://www.w3.org/2000/svg" xmlns:xlink="http://www.w3.org/1999/xlink" x="0px" y="0px"
	 width="612px" height="792px" viewBox="0 0 612 792" enable-background="new 0 0 612 792" xml:space="preserve">
<image display="none" overflow="visible" enable-background="new    " width="189" height="183" xlink:href="YACHTS.PNG"  transform="matrix(3.2381 0 0 3.153 0.0015 104.4971)">
</image>
<path fill="#5A5A5A" stroke="#5A5A5A" stroke-width="9" d="M115.5,426.5c0,0,197-173,197-254s-3,319.5-3,319.5L115.5,426.5z"/>
<path fill="#5A5A5A" stroke="#5A5A5A" stroke-width="9" d="M312.5,449.5c0,0,24.875-226.75,24-255.875
	c-1.081-35.989,237,267.875,166,295.875C425.014,520.059,312.5,449.5,312.5,449.5z"/>
<path fill="#5A5A5A" stroke="#5A5A5A" stroke-width="9" d="M101.5,494.5l446.5,2.675c0,0-98.5,134.325-247.5,114.325
	S67,531.5,101.5,494.5z"/>
<path fill="none" stroke="#5A5A5A" stroke-width="9" stroke-linejoin="round" d="M28.135,646.292
	c4.584,5.789,14.466,6.375,21.032,6.375c9.217,0,16.147-0.907,24.667-3.334c9.862-2.81,20.324-5.996,29.175-11.871
	c4.568-3.031,7.427-8.744,11.129-12.63c7.521,9.985,16.642,11.638,27.865,15.608c11.84,4.188,23.191,9.656,35.45,11.852
	c14.989,2.684,36.96,4.808,50.381-2.626c9.527-5.276,20.775-9.045,21.167-20c5.691,1.827,6.112,9.364,11.167,12.807
	c5.438,3.703,9.421,11.053,15.667,12.193c11.45,2.092,19.471,6.03,31.167,4.5c4.841-0.633,10.024-0.894,14.667-2
	c6.518-1.553,17.661-3.606,24-6c6.676-2.521,14.609-17.193,16.965-24.556c4.895,6.636,9.589,14.917,17.202,18.723
	C391.266,651.048,409.365,660.01,422,660c17.908-0.014,41.433,1.749,57-8.167c5.711-3.638,21.581-11.304,20.167-19.833
	c10.85,11.244,20.29,18.729,35.802,20.026c7.46,0.624,14.191,0.25,21.75,0.25c6.144,0,16.55-1.436,22.083-4.65"/>
<path fill="none" stroke="#5A5A5A" stroke-width="9" stroke-linejoin="round" d="M28.135,605.387
	c4.584,5.789,14.466,6.375,21.032,6.375c9.217,0,16.147-0.906,24.667-3.334c9.862-2.81,20.324-5.996,29.175-11.871
	c4.568-3.03,7.427-8.743,11.129-12.63c7.521,9.985,16.642,11.639,27.865,15.608c11.84,4.188,23.191,9.657,35.45,11.852
	c14.989,2.685,36.96,4.809,50.381-2.626c9.527-5.275,20.775-9.045,21.167-20c5.691,1.827,6.112,9.364,11.167,12.808
	c5.438,3.703,9.421,11.052,15.667,12.192c11.45,2.093,19.471,6.03,31.167,4.5c4.841-0.633,10.024-0.894,14.667-2
	c6.518-1.553,17.661-3.605,24-6c6.676-2.521,14.609-17.192,16.965-24.556c4.895,6.636,9.589,14.917,17.202,18.723
	c11.432,5.716,29.531,14.678,42.166,14.667c17.908-0.014,41.433,1.749,57-8.167c5.711-3.638,21.581-11.304,20.167-19.833
	c10.85,11.244,20.29,18.729,35.802,20.026c7.46,0.624,14.191,0.25,21.75,0.25c6.144,0,16.55-1.435,22.083-4.65"/>
</svg>
